<svg width="80" height="26" viewBox="0 0 80 26" fill="none" xmlns="http://www.w3.org/2000/svg">
<path d="M16.024 19.816C16.5787 19.4107 17.08 18.92 17.528 18.344C17.976 17.7467 18.3493 17.448 18.648 17.448C18.968 17.448 19.128 17.9173 19.128 18.856C19.128 19.7733 18.8613 20.648 18.328 21.48C17.816 22.2907 17.1333 22.9733 16.28 23.528C14.5307 24.68 12.4613 25.256 10.072 25.256C7.17067 25.256 4.92 24.5307 3.32 23.08C1.72 21.6293 0.92 19.6133 0.92 17.032C0.92 13.8533 1.688 10.8347 3.224 7.976C3.736 7.03733 4.312 6.17333 4.952 5.384C4.46133 4.808 4.06667 4.21067 3.768 3.592C3.49067 2.952 3.352 2.472 3.352 2.152C3.352 1.576 3.56533 1.288 3.992 1.288C4.29067 1.30933 4.632 1.512 5.016 1.896L6.008 2.856C6.264 3.112 6.53067 3.32533 6.808 3.496C8.92 1.704 11.192 0.807999 13.624 0.807999C16.0773 0.807999 17.6667 1.49067 18.392 2.856C18.648 3.368 18.776 3.99733 18.776 4.744C18.776 5.87467 18.2853 6.824 17.304 7.592C16.3227 8.36 15 8.744 13.336 8.744C11.6933 8.744 9.98667 8.40267 8.216 7.72C6.70133 10.3013 5.944 13 5.944 15.816C5.944 19.72 7.50133 21.672 10.616 21.672C12.536 21.672 14.3387 21.0533 16.024 19.816ZM9.752 5.736C10.84 6.09867 12.024 6.28 13.304 6.28C14.584 6.28 15.224 5.928 15.224 5.224C15.224 4.392 14.7013 3.976 13.656 3.976C12.2267 3.976 10.9253 4.56267 9.752 5.736ZM37.1705 17.448C37.5545 17.448 37.7465 17.9387 37.7465 18.92C37.7465 19.4533 37.5225 20.104 37.0745 20.872C36.6265 21.6187 36.0398 22.312 35.3145 22.952C34.6105 23.5707 33.8212 24.0827 32.9465 24.488C32.0718 24.8933 31.2185 25.096 30.3865 25.096C29.2558 25.096 28.4985 24.104 28.1145 22.12C27.5598 23.0373 26.8345 23.7947 25.9385 24.392C25.0425 24.968 23.8372 25.256 22.3225 25.256C20.8292 25.256 19.6238 24.7867 18.7065 23.848C17.7892 22.9093 17.3412 21.768 17.3625 20.424C17.3625 16.7973 18.5678 13.9387 20.9785 11.848C22.0025 10.9733 22.9518 10.3973 23.8265 10.12C24.7225 9.84267 25.6612 9.704 26.6425 9.704C27.6238 9.704 28.4238 9.87467 29.0425 10.216C29.3412 9.59733 29.6825 9.288 30.0665 9.288C30.8132 9.288 31.5172 9.61867 32.1785 10.28C32.8612 10.92 33.2025 11.528 33.2025 12.104C32.9038 12.808 32.4665 13.6507 31.8905 14.632C31.7198 15.6133 31.6345 16.9893 31.6345 18.76C31.6345 20.5307 31.8585 21.416 32.3065 21.416C32.8612 21.416 34.2052 20.3067 36.3385 18.088C36.7225 17.6613 36.9998 17.448 37.1705 17.448ZM22.0665 19.368C22.0665 21.0107 22.6745 21.832 23.8905 21.832C25.1918 21.8107 26.2692 21.1173 27.1225 19.752C27.4212 19.2827 27.6665 18.7067 27.8585 18.024C27.8585 15.6347 28.0718 13.5867 28.4985 11.88C26.7705 12.2213 25.2665 13.0533 23.9865 14.376C22.7065 15.6987 22.0665 17.3627 22.0665 19.368ZM43.2835 25.096C40.2328 25.1173 38.1528 23.976 37.0435 21.672C36.6595 20.8613 36.4675 19.848 36.4675 18.632C36.4675 17.3947 36.5742 16.0827 36.7875 14.696C37.2142 11.9227 38.0355 9.36267 39.2515 7.016C39.8702 5.82133 40.5635 4.79733 41.3315 3.944C43.0168 2.06667 44.8942 1.13866 46.9635 1.16C47.8808 1.16 48.5955 1.416 49.1075 1.928C49.6408 2.41867 49.9075 3.13333 49.9075 4.072C49.9075 5.01067 49.6302 5.96 49.0755 6.92C48.5208 7.85867 47.8062 8.84 46.9315 9.864C46.0782 10.8667 45.1288 11.9227 44.0835 13.032C43.0382 14.1413 42.0142 15.3467 41.0115 16.648V17.928C41.0115 19.1227 41.2675 19.9973 41.7795 20.552C42.2915 21.1067 42.8888 21.384 43.5715 21.384C45.4062 21.384 47.0275 20.4773 48.4355 18.664C49.0115 17.9173 49.4488 17.544 49.7475 17.544C50.0462 17.544 50.1955 17.9067 50.1955 18.632C50.1955 19.3573 49.9928 20.104 49.5875 20.872C49.2035 21.6187 48.6915 22.312 48.0515 22.952C47.4115 23.5707 46.6755 24.0827 45.8435 24.488C45.0115 24.8933 44.1582 25.096 43.2835 25.096ZM45.0115 7.912C45.4595 7.35733 45.8115 6.856 46.0675 6.408C46.3235 5.96 46.4515 5.50133 46.4515 5.032C46.4515 4.54133 46.2808 4.296 45.9395 4.296C45.1928 4.296 44.3608 5.064 43.4435 6.6C42.5475 8.136 41.8755 10.152 41.4275 12.648C42.1528 11.5387 42.8142 10.6107 43.4115 9.864C44.0302 9.11733 44.5635 8.46667 45.0115 7.912ZM55.7598 21.512C57.4238 21.512 59.0344 20.8507 60.5918 19.528C61.1678 19.0373 61.6371 18.5893 61.9998 18.184C62.3624 17.7573 62.6398 17.544 62.8318 17.544C63.1304 17.544 63.2798 17.8427 63.2798 18.44C63.2798 19.0373 63.1198 19.7093 62.7998 20.456C62.4798 21.1813 61.9464 21.896 61.1998 22.6C59.3651 24.328 56.8478 25.192 53.6478 25.192C51.1091 25.192 49.3811 24.2747 48.4638 22.44C48.1438 21.8 47.9838 20.8827 47.9838 19.688C47.9838 18.4933 48.2184 17.256 48.6878 15.976C49.1571 14.6747 49.7758 13.5547 50.5438 12.616C51.3331 11.6773 52.2398 10.952 53.2638 10.44C54.2878 9.90667 55.3758 9.64 56.5278 9.64C57.7011 9.64 58.5971 9.928 59.2158 10.504C59.8558 11.08 60.1758 11.8267 60.1758 12.744C60.1758 13.6613 59.9411 14.4187 59.4718 15.016C59.0238 15.592 58.4371 16.0827 57.7118 16.488C56.9864 16.872 56.1758 17.224 55.2798 17.544C54.4051 17.8427 53.5411 18.184 52.6878 18.568V19.368C52.7091 20.136 53.0291 20.68 53.6478 21C54.2664 21.32 54.9704 21.4907 55.7598 21.512ZM55.2158 12.488C54.1064 12.488 53.3384 13.7787 52.9118 16.36C53.3598 16.0613 53.7758 15.7947 54.1598 15.56C54.5651 15.3253 54.9171 15.1013 55.2158 14.888C55.8558 14.4187 56.1864 13.8853 56.2078 13.288C56.2078 12.7547 55.8771 12.488 55.2158 12.488ZM64.3668 9.96C62.7881 9.27733 61.9988 8.616 61.9988 7.976C61.9988 7.63467 62.1374 7.47467 62.4148 7.496C62.7988 7.496 63.2361 7.592 63.7268 7.784C64.2174 7.95467 64.7188 8.09333 65.2308 8.2C66.9801 4.89333 68.9641 2.728 71.1828 1.704C71.9294 1.36267 72.6761 1.18133 73.4228 1.16C74.8948 1.16 76.0148 1.52267 76.7828 2.248C77.5721 2.952 77.9668 3.816 77.9668 4.84C77.9668 6.67467 76.9748 8.09333 74.9908 9.096C73.3694 9.90667 71.1614 10.408 68.3668 10.6C67.3641 13.0747 66.8628 15.7307 66.8628 18.568C66.8628 20.68 67.3534 21.9067 68.3348 22.248C69.0174 22.4827 69.5294 22.4933 69.8708 22.28C70.2121 22.0453 70.4788 21.7467 70.6708 21.384C70.8628 21 70.9588 20.4453 70.9588 19.72C70.9801 18.9947 70.7774 18.3867 70.3508 17.896C69.9454 17.384 69.5508 16.9147 69.1667 16.488C69.3588 15.784 69.6361 15.1973 69.9988 14.728C70.6814 13.8107 71.2681 13.352 71.7588 13.352C72.2494 13.352 72.6441 13.5227 72.9428 13.864C73.2628 14.2053 73.5188 14.632 73.7108 15.144C73.9028 15.656 74.0521 16.2107 74.1588 16.808C74.2868 17.4053 74.4254 17.96 74.5748 18.472C74.7241 18.984 74.9054 19.4107 75.1188 19.752C75.3534 20.0933 75.6521 20.264 76.0148 20.264C76.3988 20.264 76.7401 20.1253 77.0388 19.848C77.3374 19.5493 77.6041 19.2293 77.8388 18.888C78.0734 18.5467 78.2868 18.2373 78.4788 17.96C78.6708 17.6613 78.8628 17.512 79.0548 17.512C79.2681 17.512 79.4708 17.6827 79.6628 18.024C79.8761 18.3653 79.9828 18.6853 79.9828 18.984C79.9828 19.6667 79.6414 20.4773 78.9588 21.416C78.2974 22.3547 77.4441 22.824 76.3988 22.824C75.3534 22.8027 74.5428 22.5787 73.9668 22.152C73.6041 23.048 72.9854 23.7947 72.1108 24.392C71.2361 24.9893 69.9881 25.288 68.3668 25.288C66.7668 25.288 65.3908 24.872 64.2388 24.04C62.8521 23.0373 62.1588 21.48 62.1588 19.368C62.1588 16.36 62.8948 13.224 64.3668 9.96ZM74.4468 5.416C74.4254 4.66933 74.1481 4.296 73.6148 4.296C73.1028 4.296 72.4308 4.69067 71.5988 5.48C70.7668 6.26933 69.9668 7.368 69.1988 8.776C71.5241 8.37067 73.1134 7.656 73.9668 6.632C74.2654 6.248 74.4254 5.84267 74.4468 5.416Z" fill="#718FDD"/>
</svg>
